<svg width="451" height="220" viewBox="0 0 451 220" fill="none" xmlns="http://www.w3.org/2000/svg">
<path d="M189.617 26.2745H213.546L225.156 73.0695C226.383 78.2611 227.351 83.2049 228.059 87.901C228.766 92.597 229.451 97.0216 230.112 101.175H230.678C231.339 97.0216 232.023 92.597 232.731 87.901C233.439 83.2049 234.406 78.2611 235.634 73.0695L247.598 26.2745H271.031V147.191H253.898V107.192C253.898 101.057 253.957 95.1574 254.075 89.4938C254.193 83.8303 254.347 78.6269 254.536 73.8837C254.724 69.1405 254.937 64.9518 255.173 61.3177C255.409 57.6836 255.621 54.8046 255.81 52.6808H254.465L236.2 131.616H224.59L206.183 52.6808H204.838C205.027 54.8046 205.239 57.6836 205.475 61.3177C205.711 64.9518 205.923 69.1405 206.112 73.8837C206.301 78.6269 206.454 83.8303 206.572 89.4938C206.69 95.1574 206.749 101.057 206.749 107.192V147.191H189.617V26.2745ZM292.411 26.2745H337.223V40.7165H310.746V76.8924H331.206V91.3345H310.746V132.749H337.931V147.191H292.411V26.2745ZM351.878 26.2745H370.214C372.526 26.2745 375.063 26.3807 377.824 26.593C380.585 26.8054 383.346 27.301 386.107 28.0797C388.868 28.8585 391.535 30.0502 394.107 31.6548C396.679 33.2595 398.956 35.4423 400.938 38.2033C402.921 40.9643 404.513 44.4214 405.717 48.5747C406.921 52.728 407.522 57.778 407.522 63.7247V67.9723C407.522 74.4382 406.968 79.972 405.859 84.5736C404.749 89.1753 403.275 93.0453 401.434 96.1839C399.593 99.3224 397.458 101.836 395.027 103.723C392.596 105.611 390.071 107.039 387.452 108.007C384.833 108.974 382.19 109.611 379.523 109.918C376.856 110.225 374.343 110.378 371.983 110.378H370.214V147.191H351.878V26.2745ZM371.134 96.9272C374.438 96.9272 377.222 96.4435 379.488 95.4759C381.753 94.5084 383.558 92.9981 384.903 90.9451C386.249 88.8921 387.216 86.2491 387.806 83.0161C388.396 79.7832 388.691 75.9013 388.691 71.3705V60.4681C388.691 56.8812 388.431 53.7781 387.912 51.1587C387.393 48.5393 386.461 46.3801 385.116 44.681C383.771 42.9819 381.965 41.7194 379.7 40.8935C377.435 40.0676 374.579 39.6546 371.134 39.6546H370.214V96.9272H371.134Z" fill="#212245"/>
<path d="M199.172 173.64V193.559H197.094V184.368H184.631V193.559H182.525V173.64H184.631V182.518H197.094V173.64H199.172ZM207.936 191.51C206.494 190.03 205.773 187.877 205.773 185.051V173.64H207.879V184.965C207.879 187.28 208.4 189.006 209.444 190.144C210.487 191.282 211.995 191.852 213.968 191.852C215.96 191.852 217.478 191.282 218.521 190.144C219.564 189.006 220.086 187.28 220.086 184.965V173.64H222.135V185.051C222.135 187.877 221.419 190.03 219.987 191.51C218.554 192.99 216.548 193.73 213.968 193.73C211.388 193.73 209.377 192.99 207.936 191.51ZM244.344 184.98C245.056 185.824 245.411 186.91 245.411 188.238C245.411 189.945 244.781 191.259 243.519 192.179C242.258 193.099 240.394 193.559 237.928 193.559H228.765V173.64H237.358C239.578 173.64 241.3 174.086 242.523 174.977C243.747 175.869 244.359 177.131 244.359 178.762C244.359 179.862 244.088 180.797 243.548 181.565C243.007 182.333 242.262 182.907 241.314 183.286C242.623 183.571 243.633 184.135 244.344 184.98ZM230.871 175.376V182.604H237.216C238.829 182.604 240.071 182.295 240.944 181.679C241.816 181.062 242.253 180.166 242.253 178.99C242.253 177.813 241.816 176.917 240.944 176.301C240.071 175.684 238.829 175.376 237.216 175.376H230.871ZM241.94 190.913C242.85 190.305 243.306 189.357 243.306 188.067C243.306 185.582 241.503 184.339 237.899 184.339H230.871V191.823H237.899C239.682 191.823 241.029 191.52 241.94 190.913ZM260.349 175.461V183.286H270.649V185.108H260.349V193.559H258.243V173.64H271.902V175.461H260.349ZM279.626 192.406C278.023 191.524 276.771 190.315 275.87 188.778C274.969 187.242 274.518 185.515 274.518 183.599C274.518 181.683 274.969 179.957 275.87 178.421C276.771 176.884 278.023 175.675 279.626 174.792C281.229 173.91 283.017 173.469 284.99 173.469C286.963 173.469 288.741 173.906 290.325 174.778C291.909 175.651 293.157 176.86 294.067 178.406C294.978 179.952 295.433 181.683 295.433 183.599C295.433 185.515 294.978 187.247 294.067 188.793C293.157 190.339 291.909 191.548 290.325 192.421C288.741 193.293 286.963 193.73 284.99 193.73C283.017 193.73 281.229 193.289 279.626 192.406ZM289.258 190.784C290.529 190.073 291.525 189.087 292.246 187.825C292.967 186.564 293.327 185.155 293.327 183.599C293.327 182.044 292.967 180.635 292.246 179.374C291.525 178.112 290.529 177.126 289.258 176.414C287.987 175.703 286.565 175.347 284.99 175.347C283.415 175.347 281.988 175.703 280.707 176.414C279.427 177.126 278.422 178.112 277.691 179.374C276.961 180.635 276.596 182.044 276.596 183.599C276.596 185.155 276.961 186.564 277.691 187.825C278.422 189.087 279.427 190.073 280.707 190.784C281.988 191.496 283.415 191.852 284.99 191.852C286.565 191.852 287.987 191.496 289.258 190.784ZM314.043 193.559L309.49 187.156C308.978 187.213 308.447 187.242 307.896 187.242H302.547V193.559H300.441V173.64H307.896C310.438 173.64 312.43 174.247 313.872 175.461C315.314 176.675 316.035 178.345 316.035 180.469C316.035 182.025 315.641 183.339 314.854 184.41C314.067 185.482 312.943 186.255 311.482 186.73L316.348 193.559H314.043ZM312.364 184.14C313.407 183.267 313.929 182.044 313.929 180.469C313.929 178.857 313.407 177.619 312.364 176.756C311.321 175.893 309.812 175.461 307.84 175.461H302.547V185.449H307.84C309.812 185.449 311.321 185.013 312.364 184.14ZM332.352 192.421C330.768 191.548 329.525 190.339 328.624 188.793C327.723 187.247 327.273 185.515 327.273 183.599C327.273 181.683 327.723 179.952 328.624 178.406C329.525 176.86 330.773 175.651 332.366 174.778C333.96 173.906 335.743 173.469 337.716 173.469C339.195 173.469 340.561 173.716 341.813 174.209C343.065 174.702 344.128 175.423 345 176.372L343.663 177.709C342.107 176.135 340.144 175.347 337.773 175.347C336.198 175.347 334.766 175.708 333.476 176.429C332.186 177.15 331.176 178.136 330.445 179.388C329.715 180.64 329.35 182.044 329.35 183.599C329.35 185.155 329.715 186.559 330.445 187.811C331.176 189.063 332.186 190.049 333.476 190.77C334.766 191.491 336.198 191.852 337.773 191.852C340.163 191.852 342.126 191.055 343.663 189.461L345 190.799C344.128 191.747 343.061 192.473 341.799 192.976C340.538 193.478 339.167 193.73 337.687 193.73C335.714 193.73 333.936 193.293 332.352 192.421ZM366.427 173.64V193.559H364.35V184.368H351.886V193.559H349.781V173.64H351.886V182.518H364.35V173.64H366.427ZM387.285 191.738V193.559H373.199V173.64H386.858V175.461H375.305V182.547H385.606V184.339H375.305V191.738H387.285ZM394.625 175.461V183.286H404.926V185.108H394.625V193.559H392.519V173.64H406.178V175.461H394.625ZM411.939 193.018C410.583 192.544 409.535 191.918 408.795 191.14L409.62 189.518C410.341 190.239 411.299 190.822 412.494 191.268C413.689 191.714 414.922 191.937 416.193 191.937C417.976 191.937 419.314 191.61 420.205 190.955C421.097 190.301 421.543 189.452 421.543 188.408C421.543 187.612 421.301 186.976 420.817 186.502C420.333 186.028 419.741 185.662 419.039 185.406C418.337 185.15 417.36 184.87 416.108 184.567C414.609 184.188 413.414 183.822 412.522 183.471C411.631 183.12 410.867 182.585 410.232 181.864C409.596 181.143 409.278 180.166 409.278 178.933C409.278 177.927 409.544 177.012 410.075 176.187C410.606 175.362 411.422 174.702 412.522 174.209C413.623 173.716 414.989 173.469 416.62 173.469C417.758 173.469 418.873 173.626 419.963 173.939C421.054 174.252 421.998 174.683 422.795 175.234L422.083 176.912C421.249 176.362 420.357 175.95 419.409 175.675C418.46 175.4 417.531 175.262 416.62 175.262C414.875 175.262 413.561 175.599 412.679 176.272C411.797 176.946 411.356 177.813 411.356 178.876C411.356 179.673 411.598 180.313 412.081 180.797C412.565 181.28 413.172 181.65 413.902 181.906C414.633 182.162 415.615 182.442 416.848 182.746C418.308 183.106 419.489 183.462 420.39 183.813C421.291 184.164 422.055 184.695 422.681 185.406C423.307 186.118 423.62 187.081 423.62 188.295C423.62 189.3 423.35 190.215 422.809 191.041C422.268 191.866 421.438 192.52 420.319 193.004C419.2 193.488 417.825 193.73 416.193 193.73C414.713 193.73 413.295 193.492 411.939 193.018Z" fill="#64C6C4"/>
<mask id="mask0_1_44" style="mask-type:luminance" maskUnits="userSpaceOnUse" x="25" y="25" width="135" height="169">
<path d="M159.281 193.938L25.8958 193.938L25.8958 25.8958L159.281 25.8958L159.281 193.938Z" fill="white"/>
</mask>
<g mask="url(#mask0_1_44)">
<mask id="mask1_1_44" style="mask-type:luminance" maskUnits="userSpaceOnUse" x="25" y="25" width="135" height="169">
<path d="M159.281 193.938L25.8958 193.938L25.8958 25.8958L159.281 25.8958L159.281 193.938Z" fill="white"/>
</mask>
<g mask="url(#mask1_1_44)">
<path d="M159.281 193.938L25.8958 193.938V148.284H159.281V193.938Z" fill="#DCEAC6"/>
</g>
<mask id="mask2_1_44" style="mask-type:luminance" maskUnits="userSpaceOnUse" x="25" y="25" width="135" height="169">
<path d="M159.281 193.938L25.8958 193.938L25.8958 25.8958L159.281 25.8958L159.281 193.938Z" fill="white"/>
</mask>
<g mask="url(#mask2_1_44)">
<path d="M92.6406 137.679C92.6406 137.679 35.0715 74.226 26 25.8928L26 149L159.281 149L159.281 26.1022C150.211 75.1037 92.6406 137.679 92.6406 137.679Z" fill="#A4CB6A"/>
</g>
<mask id="mask3_1_44" style="mask-type:luminance" maskUnits="userSpaceOnUse" x="25" y="25" width="135" height="169">
<path d="M159.281 193.938L25.8958 193.938L25.8958 25.8958L159.281 25.8958L159.281 193.938Z" fill="white"/>
</mask>
<g mask="url(#mask3_1_44)">
<path d="M119.846 103.945H159.281V26.1021C154.477 52.0089 136.099 81.7093 119.846 103.945Z" fill="#64C6C4"/>
</g>
<mask id="mask4_1_44" style="mask-type:luminance" maskUnits="userSpaceOnUse" x="25" y="25" width="135" height="169">
<path d="M159.281 193.938L25.8958 193.938L25.8958 25.8958L159.281 25.8958L159.281 193.938Z" fill="white"/>
</mask>
<g mask="url(#mask4_1_44)">
<path d="M25.8958 25.8957L25.8958 103.945H65.576C49.2593 81.5209 30.7212 51.5762 25.8958 25.8957Z" fill="#64C6C4"/>
</g>
<mask id="mask5_1_44" style="mask-type:luminance" maskUnits="userSpaceOnUse" x="25" y="25" width="135" height="169">
<path d="M159.281 193.938L25.8958 193.938L25.8958 25.8958L159.281 25.8958L159.281 193.938Z" fill="white"/>
</mask>
<g mask="url(#mask5_1_44)">
<path d="M25.8958 25.8958L25.8958 58.949H37.7111C32.1908 47.7558 27.8818 36.4639 25.8958 25.8958Z" fill="#212245"/>
</g>
<path d="M147.683 58.949H159.281V26.1021C157.322 36.6742 153.098 47.8774 147.683 58.949Z" fill="#212245"/>
</g>
</svg>
